<svg viewBox="0 0 100 100" xmlns="http://www.w3.org/2000/svg">
  <title>ARCANE.UZ</title>
  <defs>
    <linearGradient id="bg" x1="0%" y1="0%" x2="100%" y2="100%">
      <stop offset="0%" stop-color="#3B0764"/>
      <stop offset="100%" stop-color="#06B6D4"/>
    </linearGradient>
  </defs>
  <rect width="100" height="100" rx="8" fill="url(#bg)"/>
  <g fill="white">
    <rect x="32" y="8"  width="11" height="11"/>
    <rect x="44" y="8"  width="11" height="11"/>
    <rect x="56" y="8"  width="11" height="11"/>
    <rect x="20" y="20" width="11" height="11"/>
    <rect x="68" y="20" width="11" height="11"/>
    <rect x="20" y="32" width="11" height="11"/>
    <rect x="68" y="32" width="11" height="11"/>
    <rect x="20" y="44" width="59" height="11"/>
    <rect x="8"  y="56" width="23" height="11"/>
    <rect x="68" y="56" width="23" height="11"/>
    <rect x="8"  y="68" width="11" height="11"/>
    <rect x="80" y="68" width="11" height="11"/>
    <rect x="8"  y="80" width="11" height="11"/>
    <rect x="80" y="80" width="11" height="11"/>
  </g>
</svg>
