<svg xmlns="http://www.w3.org/2000/svg" viewBox="0 0 100 100"><title>ARCANE.UZ</title><defs><linearGradient id="bg" x1="0%" x2="100%" y1="0%" y2="100%"><stop offset="0%" stop-color="#3B0764"/><stop offset="50%" stop-color="#7C3AED"/><stop offset="100%" stop-color="#06B6D4"/></linearGradient><filter id="pixelGlow"><feGaussianBlur result="blur" stdDeviation="1.5"/><feMerge><feMergeNode in="blur"/><feMergeNode in="SourceGraphic"/></feMerge></filter></defs><rect width="100" height="100" fill="url(#bg)" rx="8"/><rect width="94" height="94" x="3" y="3" fill="none" stroke="rgba(255,255,255,0.08)" stroke-width="1.5" rx="6"/><g fill="#fff" filter="url(#pixelGlow)"><rect width="11" height="11" x="32" y="8"/><rect width="11" height="11" x="44" y="8"/><rect width="11" height="11" x="56" y="8"/><rect width="11" height="11" x="20" y="20"/><rect width="11" height="11" x="68" y="20"/><rect width="11" height="11" x="20" y="32"/><rect width="11" height="11" x="68" y="32"/><rect width="59" height="11" x="20" y="44"/><rect width="23" height="11" x="8" y="56"/><rect width="23" height="11" x="68" y="56"/><rect width="11" height="11" x="8" y="68"/><rect width="11" height="11" x="80" y="68"/><rect width="11" height="11" x="8" y="80"/><rect width="11" height="11" x="80" y="80"/></g></svg>