<svg xmlns="http://www.w3.org/2000/svg" width="400" height="480" viewBox="0 0 400 480"><defs><style>@import url(https://fonts.googleapis.com/css2?family=Press+Start+2P&amp;display=swap);</style><linearGradient id="g-border" x1="0%" x2="100%" y1="0%" y2="100%"><stop offset="0%" stop-color="#9D60FA"/><stop offset="50%" stop-color="#7C3AED"/><stop offset="100%" stop-color="#06B6D4"/></linearGradient><linearGradient id="g-border-v" x1="0%" x2="0%" y1="0%" y2="100%"><stop offset="0%" stop-color="#9D60FA"/><stop offset="100%" stop-color="#06B6D4"/></linearGradient><linearGradient id="g-cabinet" x1="0%" x2="10%" y1="0%" y2="100%"><stop offset="0%" stop-color="#1C0A35"/><stop offset="100%" stop-color="#0C0C1A"/></linearGradient><linearGradient id="g-marquee" x1="0%" x2="100%" y1="0%" y2="0%"><stop offset="0%" stop-color="#1E0845"/><stop offset="50%" stop-color="#280D55"/><stop offset="100%" stop-color="#081840"/></linearGradient><linearGradient id="g-screen" x1="0%" x2="100%" y1="0%" y2="100%"><stop offset="0%" stop-color="#0E0128"/><stop offset="100%" stop-color="#00081E"/></linearGradient><linearGradient id="g-text" x1="0%" x2="100%" y1="0%" y2="0%"><stop offset="0%" stop-color="#FFF"/><stop offset="30%" stop-color="#C4B5FD"/><stop offset="65%" stop-color="#7C3AED"/><stop offset="100%" stop-color="#06B6D4"/></linearGradient><linearGradient id="g-diamond" x1="0%" x2="100%" y1="0%" y2="100%"><stop offset="0%" stop-color="#A78BFA"/><stop offset="100%" stop-color="#06B6D4"/></linearGradient><linearGradient id="g-btn1" x1="0%" x2="0%" y1="0%" y2="100%"><stop offset="0%" stop-color="#9D60FA"/><stop offset="100%" stop-color="#6D28D9"/></linearGradient><linearGradient id="g-btn2" x1="0%" x2="0%" y1="0%" y2="100%"><stop offset="0%" stop-color="#22D3EE"/><stop offset="100%" stop-color="#0891B2"/></linearGradient><radialGradient id="g-ambient" cx="50%" cy="48%" r="50%"><stop offset="0%" stop-color="#7C3AED" stop-opacity=".22"/><stop offset="100%" stop-color="#7C3AED" stop-opacity="0"/></radialGradient><radialGradient id="g-portal" cx="50%" cy="50%" r="50%"><stop offset="0%" stop-color="#FFF" stop-opacity=".55"/><stop offset="60%" stop-color="#7C3AED" stop-opacity=".15"/><stop offset="100%" stop-color="#7C3AED" stop-opacity="0"/></radialGradient><filter id="glow" width="160%" height="160%" x="-30%" y="-30%"><feGaussianBlur result="b" stdDeviation="4"/><feMerge><feMergeNode in="b"/><feMergeNode in="SourceGraphic"/></feMerge></filter><filter id="glow-sm" width="140%" height="140%" x="-20%" y="-20%"><feGaussianBlur result="b" stdDeviation="2.5"/><feMerge><feMergeNode in="b"/><feMergeNode in="SourceGraphic"/></feMerge></filter><filter id="glow-lg" width="220%" height="220%" x="-60%" y="-60%"><feGaussianBlur result="b" stdDeviation="12"/><feMerge><feMergeNode in="b"/><feMergeNode in="SourceGraphic"/></feMerge></filter><filter id="text-glow" width="116%" height="160%" x="-8%" y="-30%"><feGaussianBlur result="b" stdDeviation="5"/><feMerge><feMergeNode in="b"/><feMergeNode in="SourceGraphic"/></feMerge></filter></defs><ellipse cx="200" cy="200" fill="url(#g-ambient)" rx="180" ry="210"/><ellipse cx="200" cy="390" fill="#7C3AED" filter="url(#glow-lg)" opacity=".07" rx="130" ry="45"/><path fill="#7C3AED" d="M138 18 L262 18 L304 54 L304 290 L96 290 L96 54 Z" filter="url(#glow-lg)" opacity=".12"/><path fill="url(#g-cabinet)" stroke="url(#g-border)" stroke-width="2.5" d="M140 20 L260 20 L300 56 L300 288 L100 288 L100 56 Z"/><path fill="none" stroke="rgba(255,255,255,0.07)" stroke-linecap="round" stroke-width="1.5" d="M142 23 L258 23 L296 57 L296 100"/><path fill="url(#g-marquee)" d="M140 20 L260 20 L300 56 L300 84 L100 84 L100 56 Z"/><line x1="100" x2="300" y1="84" y2="84" stroke="url(#g-border)" stroke-width="2" filter="url(#glow-sm)"/><line x1="140" x2="260" y1="21" y2="21" stroke="url(#g-border)" stroke-width="1.5" opacity=".8"/><text x="116" y="60" fill="#9D60FA" filter="url(#glow-sm)" font-size="11" opacity=".75">✦</text><text x="268" y="58" fill="#06B6D4" filter="url(#glow-sm)" font-size="9" opacity=".75">✦</text><text x="200" y="62" fill="#fff" filter="url(#text-glow)" font-family="'Press Start 2P', 'Courier New', monospace" font-size="15" letter-spacing="2" text-anchor="middle">ARCANE.UZ</text><rect width="180" height="138" x="110" y="94" fill="#08051A" stroke="url(#g-border-v)" stroke-width="2" rx="5"/><rect width="168" height="126" x="116" y="100" fill="url(#g-screen)" rx="3"/><rect width="10" height="62" x="148" y="128" fill="#5B21B6" rx="1"/><rect width="10" height="54" x="138" y="136" fill="#4C1D95" rx="1"/><rect width="10" height="62" x="242" y="128" fill="#5B21B6" rx="1"/><rect width="10" height="54" x="252" y="136" fill="#4C1D95" rx="1"/><rect width="84" height="10" x="158" y="116" fill="#7C3AED" rx="1"/><rect width="10" height="10" x="148" y="124" fill="#7C3AED" rx="1"/><rect width="10" height="10" x="242" y="124" fill="#7C3AED" rx="1"/><rect width="10" height="8" x="138" y="128" fill="#6D28D9" rx="1"/><rect width="10" height="8" x="252" y="128" fill="#6D28D9" rx="1"/><rect width="124" height="6" x="138" y="188" fill="#4C1D95" opacity=".85" rx="1"/><rect width="116" height="5" x="142" y="194" fill="#3B1480" opacity=".75" rx="1"/><rect width="108" height="4" x="146" y="199" fill="#2D0E65" opacity=".65" rx="1"/><ellipse cx="200" cy="158" fill="url(#g-portal)" rx="28" ry="34"/><ellipse cx="200" cy="156" fill="#fff" filter="url(#glow)" opacity=".7" rx="6" ry="7"/><line x1="200" x2="200" y1="148" y2="164" stroke="#fff" stroke-width="1.8" filter="url(#glow-sm)" opacity=".9"/><line x1="192" x2="208" y1="156" y2="156" stroke="#fff" stroke-width="1.8" filter="url(#glow-sm)" opacity=".9"/><text x="122" y="114" fill="#fff" font-size="9" opacity=".35">✦</text><text x="266" y="112" fill="#06B6D4" font-size="8" opacity=".4">✦</text><text x="260" y="200" fill="#9D60FA" font-size="7" opacity=".35">✦</text><rect width="168" height="126" x="116" y="100" fill="none" opacity=".4" rx="3" style="background:repeating-linear-gradient(to bottom,transparent 0,transparent 3px,rgba(0,0,0,.06) 3px,rgba(0,0,0,.06) 4px)"/><path fill="#0C0A1E" stroke="url(#g-border)" stroke-width="1.5" d="M100 244 L300 244 L305 288 L95 288 Z"/><line x1="100" x2="300" y1="244" y2="244" stroke="url(#g-border)" stroke-width="1.5" filter="url(#glow-sm)" opacity=".6"/><circle cx="148" cy="270" r="20" fill="#12102A" stroke="#7C3AED" stroke-width="1.5" opacity=".9"/><circle cx="148" cy="270" r="15" fill="#0E0C22" stroke="#5B21B6" stroke-width="1"/><line x1="148" x2="145" y1="270" y2="254" stroke="#8B5CF6" stroke-linecap="round" stroke-width="4"/><circle cx="144" cy="252" r="8" fill="#7C3AED" filter="url(#glow)"/><circle cx="142" cy="250" r="5" fill="#A78BFA"/><circle cx="141" cy="249" r="2" fill="#fff" opacity=".5"/><circle cx="218" cy="270" r="16" fill="#140830" stroke="#7C3AED" stroke-width="1.5"/><circle cx="218" cy="268" r="12" fill="url(#g-btn1)" filter="url(#glow-sm)"/><circle cx="215" cy="265" r="5" fill="#fff" opacity=".2"/><circle cx="256" cy="270" r="16" fill="#00101E" stroke="#06B6D4" stroke-width="1.5"/><circle cx="256" cy="268" r="12" fill="url(#g-btn2)" filter="url(#glow-sm)"/><circle cx="253" cy="265" r="5" fill="#fff" opacity=".2"/><path fill="#07070E" stroke="url(#g-border)" stroke-width="2.5" d="M42 308 L358 308 L366 322 L366 358 L358 370 L42 370 L34 358 L34 322 Z"/><path fill="none" stroke="rgba(255,255,255,0.05)" stroke-width="1.2" d="M44 310 L356 310 L364 323"/><text x="200" y="349" fill="url(#g-text)" filter="url(#text-glow)" font-family="'Press Start 2P', 'Courier New', monospace" font-size="27" letter-spacing="1.5" text-anchor="middle">ARCANE.UZ</text><line x1="55" x2="172" y1="393" y2="393" stroke="url(#g-border)" stroke-width="1.2" opacity=".55"/><line x1="228" x2="345" y1="393" y2="393" stroke="url(#g-border)" stroke-width="1.2" opacity=".55"/><circle cx="68" cy="393" r="2.5" fill="#7C3AED" filter="url(#glow-sm)" opacity=".8"/><circle cx="106" cy="393" r="1.5" fill="#7C3AED" opacity=".5"/><circle cx="144" cy="393" r="1.5" fill="#9D60FA" opacity=".4"/><circle cx="332" cy="393" r="2.5" fill="#06B6D4" filter="url(#glow-sm)" opacity=".8"/><circle cx="294" cy="393" r="1.5" fill="#06B6D4" opacity=".5"/><circle cx="256" cy="393" r="1.5" fill="#22D3EE" opacity=".4"/><polygon fill="url(#g-diamond)" points="200 376 216 393 200 410 184 393" filter="url(#glow-lg)"/><polygon fill="url(#g-diamond)" points="200 380 212 393 200 406 188 393" opacity=".6"/><line x1="200" x2="200" y1="380" y2="406" stroke="#fff" stroke-width=".7" opacity=".4"/><line x1="188" x2="212" y1="393" y2="393" stroke="#fff" stroke-width=".7" opacity=".4"/><polygon fill="#fff" points="200 380 212 393 200 393" opacity=".12"/><circle cx="200" cy="393" r="4" fill="#fff" filter="url(#glow)" opacity=".5"/></svg>